<svg width="566" height="558" viewBox="0 0 566 558" fill="none" xmlns="http://www.w3.org/2000/svg">
<rect x="2.5" y="2.5" width="495" height="495" fill="#FF5555" stroke="black" stroke-width="5"/>
<rect x="68.5" y="60.5" width="495" height="495" fill="white" stroke="black" stroke-width="5"/>
<path d="M309.746 313.36C309.746 344.733 300.819 368.393 282.966 384.34C265.286 400.113 240.412 408 208.346 408H155.826V222.36H214.066C233.479 222.36 250.292 225.827 264.506 232.76C278.892 239.693 289.986 249.92 297.786 263.44C305.759 276.787 309.746 293.427 309.746 313.36ZM268.926 314.4C268.926 293.773 264.419 278.693 255.406 269.16C246.392 259.453 233.306 254.6 216.146 254.6H195.086V375.5H211.986C249.946 375.5 268.926 355.133 268.926 314.4ZM348.287 222.36H406.007C430.793 222.36 449.513 225.827 462.167 232.76C474.82 239.693 481.147 251.913 481.147 269.42C481.147 279.993 478.633 288.92 473.607 296.2C468.753 303.48 461.733 307.9 452.547 309.46V310.76C458.787 311.973 464.42 314.14 469.447 317.26C474.473 320.38 478.46 324.887 481.407 330.78C484.353 336.673 485.827 344.473 485.827 354.18C485.827 370.993 479.76 384.167 467.627 393.7C455.493 403.233 438.853 408 417.707 408H348.287V222.36ZM387.547 295.94H410.427C421.867 295.94 429.753 294.12 434.087 290.48C438.593 286.84 440.847 281.553 440.847 274.62C440.847 267.513 438.247 262.4 433.047 259.28C427.847 256.16 419.613 254.6 408.347 254.6H387.547V295.94ZM387.547 327.14V375.5H413.287C425.073 375.5 433.307 373.247 437.987 368.74C442.667 364.06 445.007 357.907 445.007 350.28C445.007 343.347 442.58 337.8 437.727 333.64C433.047 329.307 424.467 327.14 411.987 327.14H387.547Z" fill="black"/>
<path d="M282.966 384.34L283.632 385.086L283.632 385.086L282.966 384.34ZM155.826 408H154.826V409H155.826V408ZM155.826 222.36V221.36H154.826V222.36H155.826ZM264.506 232.76L264.067 233.659L264.072 233.661L264.506 232.76ZM297.786 263.44L296.92 263.94L296.923 263.946L296.927 263.953L297.786 263.44ZM255.406 269.16L254.673 269.84L254.679 269.847L255.406 269.16ZM195.086 254.6V253.6H194.086V254.6H195.086ZM195.086 375.5H194.086V376.5H195.086V375.5ZM308.746 313.36C308.746 344.542 299.88 367.892 282.3 383.594L283.632 385.086C301.759 368.895 310.746 344.924 310.746 313.36H308.746ZM282.3 383.594C264.86 399.153 240.255 407 208.346 407V409C240.57 409 265.712 401.073 283.632 385.086L282.3 383.594ZM208.346 407H155.826V409H208.346V407ZM156.826 408V222.36H154.826V408H156.826ZM155.826 223.36H214.066V221.36H155.826V223.36ZM214.066 223.36C233.361 223.36 250.018 226.805 264.067 233.659L264.944 231.861C250.567 224.848 233.597 221.36 214.066 221.36V223.36ZM264.072 233.661C278.282 240.509 289.222 250.598 296.92 263.94L298.652 262.94C290.749 249.242 279.503 238.878 264.94 231.859L264.072 233.661ZM296.927 263.953C304.785 277.106 308.746 293.557 308.746 313.36H310.746C310.746 293.296 306.733 276.467 298.644 262.927L296.927 263.953ZM269.926 314.4C269.926 293.658 265.399 278.274 256.132 268.473L254.679 269.847C263.44 279.113 267.926 293.888 267.926 314.4H269.926ZM256.139 268.48C246.884 258.513 233.497 253.6 216.146 253.6V255.6C233.114 255.6 245.901 260.393 254.673 269.84L256.139 268.48ZM216.146 253.6H195.086V255.6H216.146V253.6ZM194.086 254.6V375.5H196.086V254.6H194.086ZM195.086 376.5H211.986V374.5H195.086V376.5ZM211.986 376.5C231.139 376.5 245.682 371.359 255.422 360.907C265.15 350.468 269.926 334.904 269.926 314.4H267.926C267.926 334.629 263.211 349.615 253.959 359.543C244.719 369.458 230.793 374.5 211.986 374.5V376.5ZM348.287 222.36V221.36H347.287V222.36H348.287ZM462.167 232.76L461.686 233.637L461.686 233.637L462.167 232.76ZM473.607 296.2L472.784 295.632L472.779 295.639L472.775 295.645L473.607 296.2ZM452.547 309.46L452.379 308.474L451.547 308.615V309.46H452.547ZM452.547 310.76H451.547V311.584L452.356 311.742L452.547 310.76ZM469.447 317.26L469.974 316.41L469.974 316.41L469.447 317.26ZM481.407 330.78L482.301 330.333L482.301 330.333L481.407 330.78ZM348.287 408H347.287V409H348.287V408ZM387.547 295.94H386.547V296.94H387.547V295.94ZM434.087 290.48L433.458 289.702L433.451 289.708L433.444 289.714L434.087 290.48ZM387.547 254.6V253.6H386.547V254.6H387.547ZM387.547 327.14V326.14H386.547V327.14H387.547ZM387.547 375.5H386.547V376.5H387.547V375.5ZM437.987 368.74L438.68 369.46L438.687 369.454L438.694 369.447L437.987 368.74ZM437.727 333.64L437.047 334.374L437.061 334.387L437.076 334.399L437.727 333.64ZM348.287 223.36H406.007V221.36H348.287V223.36ZM406.007 223.36C430.731 223.36 449.251 226.823 461.686 233.637L462.647 231.883C449.776 224.83 430.856 221.36 406.007 221.36V223.36ZM461.686 233.637C473.945 240.354 480.147 252.186 480.147 269.42H482.147C482.147 251.641 475.695 239.032 462.647 231.883L461.686 233.637ZM480.147 269.42C480.147 279.831 477.674 288.549 472.784 295.632L474.43 296.768C479.593 289.291 482.147 280.156 482.147 269.42H480.147ZM472.775 295.645C468.085 302.68 461.314 306.957 452.379 308.474L452.714 310.446C462.153 308.843 469.422 304.28 474.439 296.755L472.775 295.645ZM451.547 309.46V310.76H453.547V309.46H451.547ZM452.356 311.742C458.486 312.933 464.003 315.058 468.919 318.11L469.974 316.41C464.837 313.222 459.088 311.013 452.738 309.778L452.356 311.742ZM468.919 318.11C473.771 321.121 477.639 325.48 480.512 331.227L482.301 330.333C479.281 324.293 475.175 319.639 469.974 316.41L468.919 318.11ZM480.512 331.227C483.365 336.932 484.827 344.561 484.827 354.18H486.827C486.827 344.386 485.342 336.415 482.301 330.333L480.512 331.227ZM484.827 354.18C484.827 370.718 478.877 383.589 467.009 392.914L468.245 394.486C480.643 384.745 486.827 371.269 486.827 354.18H484.827ZM467.009 392.914C455.107 402.265 438.711 407 417.707 407V409C438.995 409 455.88 404.201 468.245 394.486L467.009 392.914ZM417.707 407H348.287V409H417.707V407ZM349.287 408V222.36H347.287V408H349.287ZM387.547 296.94H410.427V294.94H387.547V296.94ZM410.427 296.94C421.899 296.94 430.106 295.13 434.73 291.246L433.444 289.714C429.401 293.11 421.834 294.94 410.427 294.94V296.94ZM434.715 291.258C439.504 287.39 441.847 281.789 441.847 274.62H439.847C439.847 281.317 437.683 286.29 433.458 289.702L434.715 291.258ZM441.847 274.62C441.847 267.233 439.119 261.757 433.561 258.423L432.532 260.137C437.375 263.043 439.847 267.793 439.847 274.62H441.847ZM433.561 258.423C428.122 255.159 419.663 253.6 408.347 253.6V255.6C419.564 255.6 427.571 257.161 432.532 260.137L433.561 258.423ZM408.347 253.6H387.547V255.6H408.347V253.6ZM386.547 254.6V295.94H388.547V254.6H386.547ZM386.547 327.14V375.5H388.547V327.14H386.547ZM387.547 376.5H413.287V374.5H387.547V376.5ZM413.287 376.5C425.141 376.5 433.711 374.245 438.68 369.46L437.293 368.02C432.902 372.248 425.005 374.5 413.287 374.5V376.5ZM438.694 369.447C443.59 364.551 446.007 358.128 446.007 350.28H444.007C444.007 357.685 441.743 363.569 437.28 368.033L438.694 369.447ZM446.007 350.28C446.007 343.083 443.473 337.248 438.378 332.881L437.076 334.399C441.687 338.352 444.007 343.611 444.007 350.28H446.007ZM438.406 332.906C433.43 328.299 424.509 326.14 411.987 326.14V328.14C424.424 328.14 432.663 330.314 437.047 334.374L438.406 332.906ZM411.987 326.14H387.547V328.14H411.987V326.14Z" fill="black"/>
</svg>
